# xmcd CD database file
# Generated: Tue Oct 30 07:54:42 2007 by WSPse's MP3c
#
# Track frame offsets:
#       150
#       32362
#       58864
#       76494
#       91448
#       110749
#       123970
#       142866
#       149057
#       170190
#       200781
#       209608
#       237280
#       287969
#
# Disc length: 4729 seconds
#
# Revision: 0
# Processed by: cddbd v1.5.2PL0 Copyright (c) Steve Scherf et al.
# Submitted via: MP3c 0.31
#   WSPse pp3c-0.31 (NLS) - ENGLISH (Dec 27 2006) Default:MP3
#
DISCID=df12770e
DTITLE=Mofro - Blackwater
DYEAR=2001
DGENRE=Blues
TTITLE0=Blackwater
TTITLE1=Ho Cake
TTITLE2=Air
TTITLE3=Jookhouse
TTITLE4=Nare Sugar
TTITLE5=Free
TTITLE6=Florida
TTITLE7=Cracka Break
TTITLE8=Lazy Fo Acre
TTITLE9=Santa Claus, True Love and Freedom
TTITLE10=Frog Giggin'
TTITLE11=Whitehouse
TTITLE12=Brighter Days
TTITLE13=DATA TRACK
EXTD=
EXTT0=
EXTT1=
EXTT2=
EXTT3=
EXTT4=
EXTT5=
EXTT6=
EXTT7=
EXTT8=
EXTT9=
EXTT10=
EXTT11=
EXTT12=
EXTT13=
PLAYORDER=
